<svg xmlns="http://www.w3.org/2000/svg" width="60.398" height="19.396" viewBox="0 0 60.398 19.396">
  <g id="Group_32" data-name="Group 32" transform="translate(-325.602 -391)">
    <text id="Copy" transform="translate(386 407)" fill="#006cff" font-size="16" font-family="HelveticaNeue-Medium, Helvetica Neue" font-weight="500"><tspan x="-39" y="0">Copy</tspan></text>
    <g id="link-chain-10470" transform="translate(451.638 521.01)">
      <g id="Group_6" data-name="Group 6" transform="translate(-126.036 -125.01)">
        <path id="Path_11" data-name="Path 11" d="M3.209,92.221A3.209,3.209,0,0,1,.94,86.743l3.267-3.267a3.213,3.213,0,0,1,4.538,0,.8.8,0,1,1-1.131,1.131,1.611,1.611,0,0,0-2.276,0L2.071,87.874A1.609,1.609,0,0,0,4.347,90.15l1.618-1.618A.8.8,0,0,1,7.1,89.663L5.478,91.281A3.188,3.188,0,0,1,3.209,92.221Z" transform="translate(0 -77.825)" fill="#006cff"/>
        <path id="Path_12" data-name="Path 12" d="M97.37,9.709a3.188,3.188,0,0,1-2.269-.94.8.8,0,1,1,1.131-1.131,1.609,1.609,0,0,0,2.276,0l3.267-3.267A1.609,1.609,0,0,0,99.5,2.1L97.88,3.714a.8.8,0,1,1-1.131-1.131L98.368.964A3.209,3.209,0,0,1,102.906,5.5L99.639,8.769A3.188,3.188,0,0,1,97.37,9.709Z" transform="translate(-89.448 -0.026)" fill="#006cff"/>
      </g>
    </g>
  </g>
</svg>
