<svg xmlns="http://www.w3.org/2000/svg" width="13.426" height="15.104" viewBox="0 0 13.426 15.104">
  <g id="files" transform="translate(-2 -4.356)">
    <path id="Union_6" data-name="Union 6" d="M-472.161-1470.436a.839.839,0,0,1-.84-.839v-10.069a.839.839,0,0,1,.84-.839h8.391a.839.839,0,0,1,.84.839v10.069a.839.839,0,0,1-.84.839Zm.839-1.678h6.713v-8.392h-6.713Zm10.069-2.517v-9.23H-468.8a.838.838,0,0,1-.839-.839.839.839,0,0,1,.839-.84h8.392a.84.84,0,0,1,.839.84v10.069a.839.839,0,0,1-.839.839A.839.839,0,0,1-461.253-1474.631Zm-7.656-.105v-.629h-.63a.943.943,0,0,1-.943-.944.943.943,0,0,1,.943-.943h.63v-.63a.943.943,0,0,1,.943-.943.944.944,0,0,1,.944.943v.63h.629a.944.944,0,0,1,.944.943.944.944,0,0,1-.944.944h-.629v.629a.944.944,0,0,1-.944.944A.944.944,0,0,1-468.909-1474.736Z" transform="translate(475 1489.896)"/>
  </g>
</svg>
