<svg xmlns="http://www.w3.org/2000/svg" width="32.608" height="12.91" viewBox="0 0 32.608 12.91">
  <g id="eyeglasses-svgrepo-com" transform="translate(-10.9 -159)">
    <path id="Path_16" data-name="Path 16" d="M42.23,164.1h-.8a6.451,6.451,0,0,0-12.165-1.351,3.455,3.455,0,0,0-2.376-.752,3.4,3.4,0,0,0-1.7.645A6.454,6.454,0,0,0,13.069,164.1H12.2a1.359,1.359,0,0,0,0,2.715h.865a6.456,6.456,0,0,0,12.75-.9c.246-.439.785-1.171,1.278-1.211.393-.033.992.446,1.59,1.284a6.451,6.451,0,0,0,12.737.819h.8a1.324,1.324,0,0,0,1.284-1.358A1.308,1.308,0,0,0,42.23,164.1Zm-22.845,5.091a3.733,3.733,0,1,1,3.733-3.733A3.736,3.736,0,0,1,19.385,169.188Zm15.738,0a3.733,3.733,0,1,1,3.733-3.733A3.736,3.736,0,0,1,35.123,169.188Z"/>
  </g>
</svg>
