<svg xmlns="http://www.w3.org/2000/svg" width="23.904" height="23.902" viewBox="0 0 23.904 23.902">
  <g id="link-chain-10470" transform="translate(126.036 126.01)">
    <g id="Group_6" data-name="Group 6" transform="translate(-126.036 -126.01)">
      <path id="Path_11" data-name="Path 11" d="M5.328,98.615a5.328,5.328,0,0,1-3.768-9.1L6.984,84.1a5.334,5.334,0,0,1,7.535,0,1.328,1.328,0,1,1-1.878,1.878,2.675,2.675,0,0,0-3.779,0L3.439,91.4a2.672,2.672,0,0,0,3.778,3.779L9.9,92.489a1.328,1.328,0,1,1,1.878,1.878L9.1,97.054A5.293,5.293,0,0,1,5.328,98.615Z" transform="translate(0 -74.713)" fill="#069383"/>
      <path id="Path_12" data-name="Path 12" d="M99.023,16.1a5.294,5.294,0,0,1-3.768-1.561,1.328,1.328,0,1,1,1.878-1.878,2.672,2.672,0,0,0,3.778,0l5.424-5.424a2.672,2.672,0,1,0-3.779-3.778L99.87,6.149a1.328,1.328,0,0,1-1.878-1.878l2.687-2.687a5.328,5.328,0,0,1,7.534,7.535l-5.424,5.423A5.293,5.293,0,0,1,99.023,16.1Z" transform="translate(-85.87 -0.026)" fill="#069383"/>
    </g>
  </g>
</svg>
