<svg xmlns="http://www.w3.org/2000/svg" width="28.58" height="28.58" viewBox="0 0 28.58 28.58">
  <g id="twitter_1_" data-name="twitter (1)" transform="translate(-0.001)">
    <circle id="Ellipse_34" data-name="Ellipse 34" cx="14.29" cy="14.29" r="14.29" transform="translate(0.001 0)" fill="#55acee"/>
    <path id="Path_32" data-name="Path 32" d="M41.752,35.63a6.815,6.815,0,0,1-1.962.537,3.425,3.425,0,0,0,1.5-1.889,6.838,6.838,0,0,1-2.169.829A3.419,3.419,0,0,0,33.3,38.222a9.7,9.7,0,0,1-7.041-3.569,3.419,3.419,0,0,0,1.057,4.56,3.392,3.392,0,0,1-1.547-.428c0,.015,0,.029,0,.043a3.418,3.418,0,0,0,2.74,3.349,3.429,3.429,0,0,1-1.542.059,3.419,3.419,0,0,0,3.191,2.372A6.9,6.9,0,0,1,25.1,46.023a9.714,9.714,0,0,0,14.954-8.184c0-.148,0-.3-.01-.442a6.926,6.926,0,0,0,1.7-1.768Z" transform="translate(-18.708 -25.36)" fill="#f1f2f2"/>
  </g>
</svg>
