<svg xmlns="http://www.w3.org/2000/svg" xmlns:xlink="http://www.w3.org/1999/xlink" width="82" height="82" viewBox="0 0 82 82">
  <defs>
    <filter id="Ellipse_1" x="0" y="0" width="82" height="82" filterUnits="userSpaceOnUse">
      <feOffset dx="-3" dy="3" input="SourceAlpha"/>
      <feGaussianBlur stdDeviation="3" result="blur"/>
      <feFlood flood-opacity="0.039"/>
      <feComposite operator="in" in2="blur"/>
      <feComposite in="SourceGraphic"/>
    </filter>
  </defs>
  <g id="Group_52" data-name="Group 52" transform="translate(-318 -803)">
    <g id="Group_7" data-name="Group 7" transform="translate(5 5)">
      <g transform="matrix(1, 0, 0, 1, 313, 798)" filter="url(#Ellipse_1)">
        <circle id="Ellipse_1-2" data-name="Ellipse 1" cx="32" cy="32" r="32" transform="translate(12 6)" fill="#f8fbff"/>
      </g>
    </g>
    <g id="Layer_2" data-name="Layer 2" transform="translate(346.221 825.22)">
      <g id="attach-2">
        <rect id="Rectangle_41" data-name="Rectangle 41" width="32" height="32" transform="translate(-0.221 -0.221)" opacity="0"/>
        <path id="Path_29" data-name="Path 29" d="M13.89,28.3A7.706,7.706,0,0,1,6,20.8V7.431A5.575,5.575,0,0,1,11.694,2,5.575,5.575,0,0,1,17.4,7.431V20.817a3.511,3.511,0,0,1-7.009,0V8.47a1.315,1.315,0,1,1,2.63,0V20.817a.881.881,0,0,0,1.749,0V7.431a2.959,2.959,0,0,0-3.077-2.8,2.959,2.959,0,0,0-3.064,2.8V20.8a5.076,5.076,0,0,0,5.26,4.865A5.076,5.076,0,0,0,19.15,20.8V7.431a1.315,1.315,0,0,1,2.63,0V20.8a7.706,7.706,0,0,1-7.89,7.5Z" transform="translate(1.89 0.63)"/>
      </g>
    </g>
  </g>
</svg>
